<svg xmlns="http://www.w3.org/2000/svg" viewBox="0 0 256 256" role="img" aria-label="صورة رمزية كرتونية للطالب">
  <rect width="256" height="256" rx="64" fill="#FFF4D6"/>
  <g opacity=".18" fill="none" stroke="#B7791F" stroke-width="7" stroke-linejoin="round"><path d="M38 98l29-50 29 50zM168 89l24-42 24 42z"/></g>
  <circle cx="128" cy="130" r="101" fill="#fff" opacity=".45"/>
  <path d="M47 256c6-54 38-84 89-84 50 0 83 30 89 84z" fill="#F59E0B"/>
  <path d="M109 164h54v31c-8 9-17 14-27 14-11 0-20-5-27-14z" fill="#F5D0AE"/>
  <ellipse cx="136" cy="118" rx="45" ry="50" fill="#F5D0AE"/>
  <path d="M82 106c5-36 25-53 52-53 30 0 48 18 53 53" fill="#4A2C20"/><path d="M77 75c19-20 44-27 76-17 13 4 25 11 34 20l-10 22H80z" fill="#B7791F"/><path d="M151 91h54c-8 10-23 14-49 12z" fill="#B7791F" opacity=".86"/>
  <g fill="#172033"><circle cx="119" cy="118" r="4.5"/><circle cx="153" cy="118" r="4.5"/></g><path d="M124 143c7 7 18 7 25 0" fill="none" stroke="#9B4B4B" stroke-width="5" stroke-linecap="round"/>
  <path d="M92 203c13 15 27 22 44 22 17 0 32-7 45-22" fill="none" stroke="#fff" stroke-opacity=".5" stroke-width="8" stroke-linecap="round"/>
</svg>