<svg xmlns="http://www.w3.org/2000/svg" viewBox="0 0 256 256" role="img" aria-label="صورة رمزية كرتونية للطالب">
  <rect width="256" height="256" rx="64" fill="#EAF1FF"/>
  <g opacity=".16" fill="none" stroke="#0F4C81" stroke-width="7"><circle cx="59" cy="69" r="23"/><circle cx="197" cy="64" r="19"/></g>
  <circle cx="128" cy="130" r="101" fill="#fff" opacity=".45"/>
  <path d="M47 256c6-54 38-84 89-84 50 0 83 30 89 84z" fill="#2563EB"/>
  <path d="M109 164h54v31c-8 9-17 14-27 14-11 0-20-5-27-14z" fill="#F6D0AD"/>
  
  <path d="M72 142c3-57 25-88 64-88 38 0 61 31 65 88l-17 38H88z" fill="#0F4C81"/><path d="M95 114c0-31 16-50 41-50 25 0 41 19 41 50 0 27-18 46-41 46s-41-19-41-46z" fill="#F6D0AD"/><path d="M84 123c8-44 25-66 52-66 26 0 44 22 52 66" fill="none" stroke="#ffffff" stroke-opacity=".42" stroke-width="8"/>
  <g fill="#172033"><circle cx="119" cy="118" r="4.5"/><circle cx="153" cy="118" r="4.5"/></g><path d="M124 143c7 7 18 7 25 0" fill="none" stroke="#9B4B4B" stroke-width="5" stroke-linecap="round"/>
  <path d="M92 203c13 15 27 22 44 22 17 0 32-7 45-22" fill="none" stroke="#fff" stroke-opacity=".5" stroke-width="8" stroke-linecap="round"/>
</svg>